PathFileType	4	(X/Y/Z)	/Users/itak/Documents/Research/Walk-IL/dataset/trc/00020_00004.trc
DataRate	CameraRate	NumFrames	NumMarkers	Units	OrigDataRate	OrigDataStartFrame	OrigNumFrames
100.000000	100.000000	4	53	mm	100.000000	224	896
Frame#	Time	RPSI			LPSI			L3			STRN			T10			C7			CLAV			RBAK			LBAK			LSHO			LUPA			LAEL			LAOL			LWTS			LWPS			LFRA			LIFD			LHPS			LHTS			RSHO			RUPA			RAEL			RAOL			RWTS			RWPS			RFRA			RIFD			RHTS			RHPS			RBHD			LFHD			RFHD			LBHD			LHIP			RHIP			RASI			LASI			LKNE			LTHI			LANK			LTIP			LTOE			LMT1			LMT5			LHEE			RKNE			RTHI			RANK			RTIP			RTOE			RMT1			RMT5			RHEE			
		X1	Y1	Z1	X2	Y2	Z2	X3	Y3	Z3	X4	Y4	Z4	X5	Y5	Z5	X6	Y6	Z6	X7	Y7	Z7	X8	Y8	Z8	X9	Y9	Z9	X10	Y10	Z10	X11	Y11	Z11	X12	Y12	Z12	X13	Y13	Z13	X14	Y14	Z14	X15	Y15	Z15	X16	Y16	Z16	X17	Y17	Z17	X18	Y18	Z18	X19	Y19	Z19	X20	Y20	Z20	X21	Y21	Z21	X22	Y22	Z22	X23	Y23	Z23	X24	Y24	Z24	X25	Y25	Z25	X26	Y26	Z26	X27	Y27	Z27	X28	Y28	Z28	X29	Y29	Z29	X30	Y30	Z30	X31	Y31	Z31	X32	Y32	Z32	X33	Y33	Z33	X34	Y34	Z34	X35	Y35	Z35	X36	Y36	Z36	X37	Y37	Z37	X38	Y38	Z38	X39	Y39	Z39	X40	Y40	Z40	X41	Y41	Z41	X42	Y42	Z42	X43	Y43	Z43	X44	Y44	Z44	X45	Y45	Z45	X46	Y46	Z46	X47	Y47	Z47	X48	Y48	Z48	X49	Y49	Z49	X50	Y50	Z50	X51	Y51	Z51	X52	Y52	Z52	X53	Y53	Z53	

225	2.24	414.3371887207031	1053.226196289062	731.4932861328125	349.5332641601562	1039.373291015625	583.3698120117188	377.762939453125	1111.059936523438	650.5972900390625	604.3006591796875	1276.175170898438	543.9560546875	374.3501586914062	1258.1845703125	648.3115234375	434.3879699707031	1517.185546875	593.3095092773438	573.7738647460938	1405.907348632812	542.6126098632812	409.4310607910156	1393.627563476562	701.80712890625	375.1351013183594	1471.996704101562	516.2203979492188	437.7705688476562	1461.505493164062	407.5881652832031	366.528076171875	1338.52294921875	361.6888122558594	332.2949523925781	1122.979370117188	358.5367126464844	321.8163146972656	1121.803833007812	463.9735717773438	408.4490966796875	862.990234375	388.8773803710938	319.8572082519531	856.4195556640625	390.1481018066406	328.4034729003906	1006.285888671875	357.1434020996094	426.8334655761719	677.8212890625	408.731689453125	342.2738037109375	763.0323486328125	384.0635681152344	412.6490478515625	767.6466064453125	374.0244750976562	578.572021484375	1504.54443359375	719.8965454101562	588.55078125	1440.721313476562	799.0250854492188	537.8790283203125	1187.628662109375	875.3771362304688	493.646728515625	1151.128295898438	792.608642578125	606.16357421875	908.268310546875	839.457763671875	574.1881713867188	911.6834106445312	925.5897216796875	546.3772583007812	1113.736694335938	895.6834106445312	581.6260375976562	728.6569213867188	836.1792602539062	625.6537475585938	796.0823974609375	852.8801879882812	595.7750244140625	803.8768310546875	921.5697631835938	579.7061157226562	1687.501831054688	611.2387084960938	590.9249877929688	1674.304565429688	400.7987365722656	668.9727783203125	1680.730224609375	460.7373352050781	461.2333984375	1682.684204101562	528.8555908203125	397.6057434082031	935.037353515625	448.7731628417969	547.5640258789062	931.6134643554688	789.41650390625	619.025146484375	955.3186645507812	685.6697998046875	527.18603515625	973.4326782226562	468.4598388671875	590.6774291992188	522.541015625	452.9136352539062	506.1077270507812	639.9129028320312	435.8590393066406	574.9466552734375	32.46089935302734	534.1284790039062	555.0933227539062	270.3039855957031	489.76513671875	794.7348022460938	33.38842010498047	475.2828674316406	753.6681518554688	40.5315055847168	516.813720703125	669.54052734375	39.57376098632812	451.9485473632812	546.0772705078125	41.10880279541016	614.6469116210938	536.3715209960938	489.0801391601562	800.3421630859375	561.0374755859375	765.7499389648438	793.3991088867188	114.3649826049805	236.3570556640625	935.229248046875	444.2975769042969	397.6864929199219	837.3882446289062	234.6723480224609	51.44910430908203	866.2176513671875	194.2967224121094	103.9880828857422	843.3248901367188	193.2498626708984	109.8745346069336	940.7081298828125	73.83509063720703	280.3108520507812	897.0604248046875	
226	2.25	422.6461486816406	1054.307250976562	726.4192504882812	356.3180541992188	1040.546020507812	578.9082641601562	385.2388610839844	1112.344116210938	645.7614135742188	610.7717895507812	1277.735107421875	537.5021362304688	381.6957702636719	1259.457885742188	643.5545654296875	441.4032897949219	1518.617553710938	588.4683837890625	580.1641845703125	1407.454956054688	536.6069946289062	417.0270385742188	1394.797485351562	696.9380493164062	381.3478698730469	1473.543701171875	511.7677917480469	443.2113037109375	1463.224853515625	402.675537109375	371.7765502929688	1340.295532226562	357.0063171386719	337.8320922851562	1124.67333984375	353.5748596191406	327.7321166992188	1123.284057617188	459.0141296386719	414.5317687988281	864.7789306640625	382.9522705078125	325.9631652832031	858.0288696289062	384.6558227539062	334.1329040527344	1007.992004394531	351.9617614746094	433.3368835449219	679.605712890625	402.2743835449219	348.5614929199219	764.6965942382812	378.1944274902344	418.8690185546875	769.5009155273438	367.8230285644531	586.16259765625	1505.765747070312	714.0555419921875	596.8543090820312	1441.753662109375	792.9758911132812	547.6005249023438	1188.28125	869.0677490234375	502.952880859375	1151.828247070312	786.5857543945312	617.017822265625	909.4484252929688	831.739501953125	585.4417724609375	912.31787109375	918.0484008789062	556.4912109375	1114.355346679688	889.0621337890625	593.844970703125	729.724853515625	827.888671875	637.40283203125	797.4111938476562	844.6531982421875	607.7761840820312	804.6765747070312	913.5225830078125	587.2887573242188	1688.876098632812	605.3308715820312	596.880615234375	1675.571533203125	394.80224609375	675.3848876953125	1681.764404296875	454.1664428710938	468.2893676757812	1684.464477539062	523.9096069335938	402.9349975585938	935.8218383789062	444.029296875	556.963623046875	933.086669921875	782.7401123046875	627.1065063476562	957.054443359375	678.202880859375	532.7163696289062	974.6827392578125	462.0834045410156	594.202392578125	521.9708862304688	449.9511108398438	510.3071594238281	639.8589477539062	432.5755310058594	574.957275390625	32.49192428588867	534.11767578125	556.7376098632812	270.2469482421875	488.5030212402344	794.7378540039062	33.20927810668945	475.2819519042969	753.6925659179688	40.36495971679688	516.8317260742188	669.5562133789062	39.48653793334961	451.9107360839844	546.0261840820312	41.11881637573242	614.6163330078125	553.4238891601562	490.0926513671875	791.3632202148438	573.1486206054688	767.3607177734375	785.976318359375	132.2168121337891	239.4432220458984	931.2672119140625	461.9444274902344	399.0360412597656	829.5137939453125	253.9101104736328	54.8131217956543	863.5983276367188	212.7482757568359	106.6617126464844	840.4413452148438	212.7332916259766	114.1999893188477	937.7242431640625	90.80810546875	282.4390258789062	892.9139404296875	
227	2.26	430.9447631835938	1055.374877929688	721.3432006835938	363.0307312011719	1041.641479492188	574.4825439453125	392.6287536621094	1113.552490234375	640.9332885742188	617.0928955078125	1279.350952148438	531.10791015625	388.901611328125	1260.658325195312	638.8634643554688	448.2124328613281	1520.00244140625	583.761962890625	586.3680419921875	1409.038940429688	530.7008666992188	424.4574279785156	1395.8994140625	692.1627807617188	387.3453979492188	1475.056518554688	507.4537658691406	448.4131469726562	1464.949462890625	397.8955078125	376.7897033691406	1342.059692382812	352.4604797363281	343.1507568359375	1126.361083984375	348.7604064941406	333.5205078125	1124.743774414062	454.2118835449219	420.3773193359375	866.5437622070312	377.0809631347656	331.8193664550781	859.6390380859375	379.2828369140625	339.6311645507812	1009.689453125	346.9324645996094	439.52587890625	681.3388061523438	395.8123474121094	354.5581665039062	766.3648071289062	372.4252624511719	424.7973022460938	771.3289184570312	361.6542053222656	593.5224609375	1506.99169921875	708.3265991210938	604.9501342773438	1442.7890625	787.0260620117188	557.14453125	1188.925170898438	862.8059692382812	512.1753540039062	1152.488891601562	780.5923461914062	627.9324951171875	910.6897583007812	824.0507202148438	596.6661987304688	912.9520263671875	910.4948120117188	566.474853515625	1114.954467773438	882.4854736328125	606.4047241210938	730.845703125	819.554931640625	649.36083984375	798.8449096679688	836.4506225585938	619.8907470703125	805.52099609375	905.4588623046875	594.6609497070312	1690.270751953125	599.5652465820312	602.599853515625	1676.848388671875	388.9512939453125	681.564453125	1682.787719726562	447.7394409179688	475.0572814941406	1686.293579101562	519.080078125	408.1438598632812	936.4880981445312	439.3859252929688	566.3822021484375	934.6193237304688	776.005615234375	635.1787109375	958.8336181640625	670.6669921875	538.1649780273438	975.9268798828125	455.68896484375	597.5008544921875	521.3294677734375	447.0047302246094	514.3112182617188	639.717041015625	429.3489379882812	574.9563598632812	32.51015853881836	534.1148681640625	558.2694702148438	270.1648559570312	487.2931823730469	794.7291259765625	33.06934356689453	475.2629699707031	753.7024536132812	40.24328994750977	516.845458984375	669.5576171875	39.37852478027344	451.8590087890625	545.9796142578125	41.13391876220703	614.5941162109375	570.2188720703125	491.3320007324219	782.0928955078125	585.1304321289062	769.0751342773438	778.4857177734375	150.8118896484375	241.2839660644531	927.0348510742188	479.6048583984375	400.4403381347656	821.3396606445312	274.7216491699219	57.78179550170898	860.6535034179688	232.5100250244141	108.5456237792969	837.2394409179688	233.5064849853516	117.6627044677734	934.4053955078125	108.321907043457	283.1622924804688	888.5501098632812	
228	2.27	439.2581481933594	1056.4267578125	716.2626953125	369.7017822265625	1042.658935546875	570.1026000976562	399.9647827148438	1114.678955078125	636.1260375976562	623.2796020507812	1281.0146484375	524.742919921875	395.9801025390625	1261.786010742188	634.2337646484375	454.8181762695312	1521.331787109375	579.1802978515625	592.402099609375	1410.65380859375	524.8724365234375	431.7452087402344	1396.929809570312	687.4760131835938	393.1345825195312	1476.523315429688	503.2809143066406	453.3803405761719	1466.677368164062	393.237060546875	381.5681457519531	1343.8125	348.046630859375	348.2419738769531	1128.040283203125	344.0941162109375	339.1854553222656	1126.1865234375	449.5750122070312	425.9908752441406	868.2880249023438	371.2822265625	337.4351196289062	861.2496337890625	374.0482788085938	344.888916015625	1011.375732421875	342.0663452148438	445.4189147949219	683.0344848632812	389.3620300292969	360.2772827148438	768.0369262695312	366.7809753417969	430.4374084472656	773.1346435546875	355.5372009277344	600.6804809570312	1508.211303710938	702.6874389648438	612.869384765625	1443.819580078125	781.1524658203125	566.5391845703125	1189.563720703125	856.5982055664062	521.2816162109375	1153.123901367188	774.6483764648438	638.8737182617188	911.9833984375	816.3843383789062	607.8712768554688	913.588623046875	902.9379272460938	576.3596801757812	1115.5390625	875.96044921875	619.1895141601562	732.0234985351562	811.1716918945312	661.46142578125	800.3682250976562	828.2503662109375	632.0855102539062	806.4049682617188	897.3715209960938	601.8182983398438	1691.677612304688	593.9443969726562	608.0762329101562	1678.147338867188	383.246337890625	687.5020751953125	1683.819946289062	441.4548034667969	481.529541015625	1688.149658203125	514.3673706054688	413.2292785644531	937.0343627929688	434.8618774414062	575.8562622070312	936.195068359375	769.1975708007812	643.2352905273438	960.6492919921875	663.04150390625	543.5328979492188	977.16259765625	449.2674560546875	600.5909423828125	520.62353515625	444.0783081054688	518.1483154296875	639.5074462890625	426.156982421875	574.950927734375	32.51714324951172	534.11767578125	559.7007446289062	270.0565490722656	486.1239318847656	794.7147827148438	32.94723129272461	475.2311706542969	753.7027587890625	40.1561279296875	516.8464965820312	669.5518798828125	39.24706268310547	451.7914428710938	545.9395751953125	41.15614700317383	614.5779418945312	586.7216796875	492.7672424316406	772.5400390625	596.9729614257812	770.8662719726562	770.9168701171875	170.1056213378906	241.8705139160156	922.5460205078125	497.2521362304688	401.84912109375	812.86376953125	296.9454345703125	60.20539474487305	857.3223266601562	253.4574279785156	109.5865859985352	833.6760864257812	255.4385681152344	120.2348022460938	930.706298828125	126.3738403320312	282.4945678710938	883.9955444335938	
